<svg width="33" height="33" viewBox="0 0 33 33" fill="none" xmlns="http://www.w3.org/2000/svg">
<path d="M1.49832 11.4778C1.21371 11.4778 0.982666 11.2469 0.982666 10.9622V7.83649C0.982666 7.1239 1.56326 6.5433 2.27479 6.5433H4.59098C4.87559 6.5433 5.10663 6.77428 5.10663 7.05896C5.10663 7.34364 4.87566 7.57461 4.59098 7.57461H2.27585C2.13149 7.57461 2.01497 7.69219 2.01497 7.83656V10.9622C2.01391 11.2468 1.78393 11.4778 1.49832 11.4778Z" fill="#E5E5E5"/>
<path d="M1.49844 8.40573C0.670322 8.40573 0 9.07705 0 9.90417V14.3282C0 15.1563 0.671319 15.8267 1.49844 15.8267C2.32655 15.8267 2.99688 15.1553 2.99688 14.3282V9.90417C2.99787 9.07705 2.32649 8.40573 1.49844 8.40573Z" fill="#6F6F6F"/>
<path d="M31.5016 11.4778C31.7862 11.4778 32.0173 11.2469 32.0173 10.9622V7.83649C32.0173 7.1239 31.4367 6.5433 30.7251 6.5433H28.409C28.1244 6.5433 27.8933 6.77428 27.8933 7.05896C27.8933 7.34364 28.1243 7.57461 28.409 7.57461H30.7251C30.8695 7.57461 30.986 7.69219 30.986 7.83656V10.9622C30.986 11.2468 31.217 11.4778 31.5016 11.4778Z" fill="#E5E5E5"/>
<path d="M31.5016 8.40573C30.6735 8.40573 30.0032 9.07705 30.0032 9.90417V14.3282C30.0032 15.1563 30.6745 15.8267 31.5016 15.8267C32.3297 15.8267 33 15.1553 33 14.3282V9.90417C33 9.07705 32.3287 8.40573 31.5016 8.40573Z" fill="#6F6F6F"/>
<path d="M25.3264 0H7.66629C5.38825 0 3.54126 1.84699 3.54126 4.12502V25.673H29.4514V4.12502C29.4514 1.84699 27.6045 0 25.3264 0Z" fill="#FFBD49"/>
<path d="M27.3889 11.252V4.12503C27.3889 2.98757 26.4638 2.06255 25.3264 2.06255H7.66624C6.52878 2.06255 5.60376 2.98757 5.60376 4.12503V11.251H27.3889V11.252H27.3889Z" fill="#168DE2"/>
<path d="M30.3982 19.3752H27.2518V18.1985C27.2518 15.3615 24.9511 13.0525 22.1058 13.0525H10.8828C8.04064 13.0525 5.73681 15.3563 5.73681 18.1985V19.3752H2.59876C1.7872 19.3752 1.12817 20.0331 1.12817 20.8447V28.0263C1.12817 28.8379 1.78613 29.4969 2.59876 29.4969H30.3982C31.2097 29.4969 31.8688 28.839 31.8688 28.0263V20.8447C31.8688 20.033 31.2098 19.3752 30.3982 19.3752Z" fill="#FFDB6F"/>
<path d="M21.2241 16.7867H11.7727V18.017H21.2241V16.7867Z" fill="#FFBD49"/>
<path d="M21.2241 19.1503H11.7727V20.3806H21.2241V19.1503Z" fill="#FFBD49"/>
<path d="M21.2241 21.5129H11.7727V22.7432H21.2241V21.5129Z" fill="#FFBD49"/>
<path d="M21.2241 23.8755H11.7727V25.1058H21.2241V23.8755Z" fill="#FFBD49"/>
<path d="M6.47531 26.103C8.00284 26.103 9.24115 24.8647 9.24115 23.3372C9.24115 21.8097 8.00284 20.5714 6.47531 20.5714C4.94778 20.5714 3.70947 21.8097 3.70947 23.3372C3.70947 24.8647 4.94778 26.103 6.47531 26.103Z" fill="white"/>
<path d="M6.47539 25.5245C7.6834 25.5245 8.66269 24.5452 8.66269 23.3372C8.66269 22.1292 7.6834 21.1499 6.47539 21.1499C5.26737 21.1499 4.28809 22.1292 4.28809 23.3372C4.28809 24.5452 5.26737 25.5245 6.47539 25.5245Z" fill="#6F6F6F"/>
<path d="M6.01016 23.9147C6.58652 23.9147 7.05376 23.4474 7.05376 22.8711C7.05376 22.2947 6.58652 21.8275 6.01016 21.8275C5.43379 21.8275 4.96655 22.2947 4.96655 22.8711C4.96655 23.4474 5.43379 23.9147 6.01016 23.9147Z" fill="#777777"/>
<path d="M26.5236 26.103C28.0512 26.103 29.2895 24.8647 29.2895 23.3372C29.2895 21.8097 28.0512 20.5714 26.5236 20.5714C24.9961 20.5714 23.7578 21.8097 23.7578 23.3372C23.7578 24.8647 24.9961 26.103 26.5236 26.103Z" fill="white"/>
<path d="M26.5237 25.5245C27.7317 25.5245 28.711 24.5452 28.711 23.3372C28.711 22.1292 27.7317 21.1499 26.5237 21.1499C25.3157 21.1499 24.3364 22.1292 24.3364 23.3372C24.3364 24.5452 25.3157 25.5245 26.5237 25.5245Z" fill="#6F6F6F"/>
<path d="M26.0556 23.9147C26.6319 23.9147 27.0992 23.4474 27.0992 22.8711C27.0992 22.2947 26.6319 21.8275 26.0556 21.8275C25.4792 21.8275 25.012 22.2947 25.012 22.8711C25.012 23.4474 25.4792 23.9147 26.0556 23.9147Z" fill="#777777"/>
<path d="M2.80078 29.4969V31.9688C2.80078 32.538 3.2628 33 3.83202 33H8.12515C8.69438 33 9.15639 32.538 9.15639 31.9688V29.4969H2.80078Z" fill="#6F6F6F"/>
<path d="M23.8362 29.4969V31.9688C23.8362 32.538 24.2982 33 24.8674 33H29.1605C29.7298 33 30.1918 32.538 30.1918 31.9688V29.4969H23.8362Z" fill="#6F6F6F"/>
<path d="M25.3264 2.06248H7.66628C6.60407 2.06248 5.73786 2.87199 5.62646 3.90429V5.72649C5.62646 6.40712 6.12351 7.0032 6.78971 7.04647C7.50124 7.07432 8.08396 6.52364 8.1025 5.83065V3.70629C8.1025 2.99575 8.6934 2.42859 9.41217 2.46056C10.0825 2.50077 10.5857 3.09991 10.5857 3.77023V6.18851C10.6053 6.84029 11.1024 7.4147 11.7562 7.45697C12.4802 7.48582 13.0618 6.91765 13.0618 6.20812L13.0762 3.49592C13.0762 2.78645 13.6578 2.21921 14.3817 2.24706C15.0489 2.28934 15.5594 2.88542 15.5594 3.56704V5.91207C15.5738 6.57927 16.1276 7.11865 16.7938 7.11865C17.4889 7.11865 18.0427 6.55149 18.0427 5.8698V3.7259C18.0427 3.15767 18.5109 2.68947 19.0925 2.68947H19.1781C19.7452 2.6472 20.2279 3.11539 20.2279 3.66814V6.03384C20.2279 6.71553 20.7249 7.31054 21.3911 7.35381C22.1151 7.38266 22.7111 6.8145 22.7111 6.10496V3.85172C22.7111 3.28349 23.1793 2.81529 23.7464 2.81529H23.832C24.4426 2.81529 24.9396 3.31234 24.9396 3.90841V5.86162C24.9396 6.52882 25.4501 7.13932 26.1173 7.16717C26.7432 7.20533 27.2661 6.75773 27.3867 6.16684V4.12496C27.3889 2.98857 26.4639 2.06248 25.3264 2.06248Z" fill="#3AA2EB"/>
<path opacity="0.2" d="M1.12817 27.3384V28.0273C1.12817 28.8389 1.78613 29.4979 2.59876 29.4979H30.3981C31.2097 29.4979 31.8687 28.8389 31.8687 28.0273C31.8687 27.5055 31.8285 27.2106 31.8285 27.2106V27.7674C31.8285 26.8094 31.1293 25.969 30.1898 25.9091C29.1874 25.8699 28.3676 26.6455 28.3407 27.6221V27.1735C28.3407 28.1738 27.5085 28.9719 26.4969 28.9276C25.5522 28.8709 24.8448 28.0273 24.8448 27.0837V27.1188C24.817 26.201 24.1167 25.3914 23.1958 25.3327C22.177 25.2924 21.3571 26.0916 21.3571 27.0909L21.3365 27.4694C21.3365 28.4686 20.5166 29.2678 19.4977 29.2287C18.5583 29.1689 17.8395 28.3295 17.8395 27.3704V27.5076C17.8189 26.5681 17.0403 25.8092 16.1008 25.8092C15.1211 25.8092 14.3425 26.6084 14.3425 27.5674V27.1467C14.3425 27.9459 13.6836 28.6059 12.8637 28.6059C11.7953 28.6059 11.2653 27.9675 11.2653 27.2271V27.3364C11.2653 26.3774 10.5661 25.538 9.62661 25.4782C8.60773 25.4379 7.76832 26.2371 7.76832 27.2364V26.9703C7.76832 27.7706 7.1083 28.4296 6.3091 28.4296C5.24688 28.4296 4.6302 27.6881 4.6302 26.8909V27.5808C4.6302 26.6414 3.91036 25.7824 2.97198 25.7421C2.02123 25.6833 1.20548 26.4072 1.12817 27.3384Z" fill="white"/>
</svg>
