<svg width="20" height="20" viewBox="0 0 20 20" fill="none" xmlns="http://www.w3.org/2000/svg">
<path d="M4.28559 2.85715C3.89109 2.85715 3.57129 3.17694 3.57129 3.57144V4.2857C3.57129 4.6802 3.89109 5 4.28559 5C4.68009 5 4.99989 4.6802 4.99989 4.2857V3.5714C4.99989 3.17694 4.68009 2.85715 4.28559 2.85715Z" fill="#333333"/>
<path d="M15.7143 8.57142C13.1915 8.57142 11.4286 10.6271 11.4286 13.5714C11.4286 15.4686 12.8378 17.3686 13.9486 18.5714H2.85715C2.06819 18.5714 1.4286 17.9319 1.4286 17.1429C1.4286 16.3539 2.06819 15.7143 2.85715 15.7143H7.14287C8.72084 15.7143 10 14.4351 10 12.8572C10 11.2792 8.72084 10 7.14287 10H6.05143C7.16216 8.79718 8.57142 6.89715 8.57142 5.00001C8.57142 2.05572 6.80855 0 4.28571 0C1.76288 0 0 2.05572 0 5.00001C0 8.06287 3.67429 11.1357 3.83073 11.265C3.8648 11.288 3.90062 11.3083 3.93787 11.3257C3.96667 11.3447 3.99672 11.3617 4.02786 11.3765C4.10972 11.41 4.19723 11.4277 4.28571 11.4286H7.14287C7.93183 11.4286 8.57142 12.0682 8.57142 12.8572C8.57142 13.6461 7.93183 14.2857 7.14287 14.2857H2.85715C1.27918 14.2857 0 15.5649 0 17.1428C0 18.7208 1.27918 20 2.85715 20H15.7143C15.8028 19.999 15.8902 19.9813 15.9721 19.9479C16.0034 19.9332 16.0335 19.9163 16.0621 19.8971C16.0994 19.8797 16.1352 19.8594 16.1693 19.8364C16.3257 19.7071 20 16.6343 20 13.5714C20 10.6271 18.2371 8.57142 15.7143 8.57142ZM4.28571 9.75928C3.20428 8.74356 1.42856 6.71429 1.42856 5.00001C1.42856 2.82999 2.55 1.4286 4.28571 1.4286C6.02142 1.4286 7.14287 2.83003 7.14287 5.00001C7.14287 6.70998 5.36572 8.74143 4.28571 9.75928ZM15.7143 18.3307C14.6329 17.315 12.8571 15.2857 12.8571 13.5714C12.8571 11.4014 13.9786 10 15.7143 10C17.45 10 18.5714 11.4015 18.5714 13.5714C18.5714 15.2814 16.7943 17.3129 15.7143 18.3307Z" fill="#333333"/>
<path d="M15.7143 11.4286C15.3198 11.4286 15 11.7484 15 12.1429V12.8571C15 13.2516 15.3198 13.5714 15.7143 13.5714C16.1088 13.5714 16.4286 13.2516 16.4286 12.8571V12.1428C16.4286 11.7484 16.1088 11.4286 15.7143 11.4286Z" fill="#333333"/>
</svg>
