<svg width="22" height="22" viewBox="0 0 22 22" fill="none" xmlns="http://www.w3.org/2000/svg">
<path d="M11 21.4062C16.8867 21.4062 21.6562 16.6367 21.6562 10.75C21.6562 4.86328 16.8867 0.09375 11 0.09375C5.11328 0.09375 0.34375 4.86328 0.34375 10.75C0.34375 16.6367 5.11328 21.4062 11 21.4062ZM15.9844 8.85938C16.2422 8.85938 16.5 9.11719 16.5 9.375V12.125C16.5 12.4258 16.2422 12.6406 15.9844 12.6406H11V15.6914C11 16.1641 10.4414 16.3789 10.0977 16.0781L5.19922 11.1367C4.98438 10.9219 4.98438 10.6211 5.19922 10.4062L10.0977 5.46484C10.4414 5.12109 11 5.37891 11 5.85156V8.85938H15.9844Z" fill="#00897B"/>
</svg>
