<svg width="21" height="19" viewBox="0 0 21 19" fill="none" xmlns="http://www.w3.org/2000/svg">
<path d="M21 11.4229C21 13.7265 20.2668 15.9132 18.8798 17.7469C18.6062 18.1088 18.0916 18.179 17.7308 17.9061C17.3695 17.6328 17.2982 17.1183 17.5714 16.757C18.7411 15.2108 19.3594 13.3662 19.3594 11.4229C19.3594 6.52637 15.3938 2.56836 10.5 2.56836C5.6028 2.56836 1.64062 6.52941 1.64062 11.4229C1.64062 13.3662 2.2589 15.2108 3.42849 16.757C3.70182 17.1183 3.63052 17.6328 3.26923 17.9061C2.90778 18.1795 2.39349 18.1082 2.12 17.7469C0.733154 15.9132 0 13.7265 0 11.4229C0 5.61922 4.69949 0.927734 10.5 0.927734C16.3037 0.927734 21 5.62242 21 11.4229ZM15.6976 6.48263C16.0179 6.8029 16.0179 7.32233 15.6976 7.6426L13.0237 10.3165C13.2439 10.7223 13.3692 11.1869 13.3692 11.6801C13.3692 13.2622 12.082 14.5492 10.5 14.5492C8.91785 14.5492 7.63083 13.2622 7.63083 11.6801C7.63083 10.0981 8.91785 8.81091 10.5 8.81091C10.9933 8.81091 11.4578 8.9362 11.8636 9.15633L14.5375 6.48247C14.8579 6.16219 15.3772 6.16219 15.6976 6.48263ZM11.7285 11.6802C11.7285 11.0028 11.1774 10.4517 10.5 10.4517C9.8226 10.4517 9.27145 11.0028 9.27145 11.6802C9.27145 12.3576 9.8226 12.9088 10.5 12.9088C11.1774 12.9088 11.7285 12.3576 11.7285 11.6802Z" fill="#333333"/>
</svg>
